<?xml version="1.0" encoding="UTF-8"?>
<svg xmlns="http://www.w3.org/2000/svg" version="1.1" viewBox="0 0 1920 1080">
  <defs>
    <style>
      .cls-1 {
        fill: #232310;
      }

      .cls-1, .cls-2, .cls-3 {
        stroke-width: 0px;
      }

      .cls-2 {
        fill: #ff89a1;
        mix-blend-mode: screen;
      }

      .cls-3 {
        fill: #ffffe8;
      }

      .cls-4 {
        isolation: isolate;
      }

      .cls-5 {
        fill: #9cf;
        stroke: #232310;
        stroke-linecap: round;
        stroke-linejoin: round;
      }
    </style>
  </defs>
  <g class="cls-4">
    <g id="Capa_1" data-name="Capa 1">
      <g>
        <polyline class="cls-2" points="1920 0 1920 1080 0 1080 0 0"/>
        <g>
          <g>
            <path class="cls-3" d="M590.1,249.1h739.9c3.7,0,6.7,3,6.7,6.7v568.3c0,3.7-3,6.7-6.7,6.7h-739.9c-3.7,0-6.7-3-6.7-6.7V255.8c0-3.7,3-6.7,6.7-6.7Z"/>
            <path class="cls-1" d="M1329.9,249.6c3.4,0,6.2,2.8,6.2,6.2v568.3c0,3.4-2.8,6.2-6.2,6.2h-739.9c-3.4,0-6.2-2.8-6.2-6.2V255.8c0-3.4,2.8-6.2,6.2-6.2h739.9M1329.9,248.6h-739.9c-4,0-7.2,3.2-7.2,7.2v568.3c0,4,3.2,7.2,7.2,7.2h739.9c4,0,7.2-3.2,7.2-7.2V255.8c0-4-3.2-7.2-7.2-7.2h0Z"/>
          </g>
          <path class="cls-5" d="M1336.2,348.3v-45.2c0-29.4-24.1-53.5-53.5-53.5h-645.3c-29.4,0-53.5,24.1-53.5,53.5v45.2h752.3Z"/>
        </g>
      </g>
    </g>
  </g>
</svg>